<?xml version="1.0" standalone="no"?><!DOCTYPE svg PUBLIC "-//W3C//DTD SVG 1.1//EN" "http://www.w3.org/Graphics/SVG/1.1/DTD/svg11.dtd"><svg t="1502185137936" class="icon" style="" viewBox="0 0 1025 1024" version="1.1" xmlns="http://www.w3.org/2000/svg" p-id="1015" xmlns:xlink="http://www.w3.org/1999/xlink" width="200.1953125" height="200"><defs><style type="text/css"></style></defs><path d="M82.944 97.28h858.624v104.96H82.944z" fill="#FFEDCC" p-id="1016"></path><path d="M175.104 11.776h673.792v93.696H175.104zM812.544 931.84l198.144-198.144h-198.144z" fill="#FFEDCC" p-id="1017"></path><path d="M1024 195.584c0-7.168-5.632-13.312-13.312-13.312H13.312c-7.168 0-13.312 5.632-13.312 13.312V931.84c0 7.168 5.632 13.312 13.312 13.312h802.304c0.512 0 1.024 0 1.024-0.512 0.512 0 1.024 0 1.024-0.512 0.512 0 1.024-0.512 1.536-0.512 0.512 0 0.512-0.512 1.024-0.512 0.512-0.512 1.536-1.024 2.048-1.536l198.144-198.144c0.512-0.512 1.024-1.024 1.536-2.048 0 0 0-0.512 0.512-0.512 0.512-0.512 0.512-1.024 1.024-1.536 0 0 0-0.512 0.512-0.512 0.512-1.536 1.024-3.072 1.024-4.608V195.584zM26.112 208.896h971.264v512h-184.832c-7.168 0-13.312 5.632-13.312 13.312v184.832H26.112V208.896z m799.744 691.2v-153.088h153.088l-153.088 153.088z" fill="#FF6000" p-id="1018"></path><path d="M929.28 116.224h-834.56c-7.168 0-13.312-5.632-13.312-13.312 0-7.168 5.632-13.312 13.312-13.312h834.048c7.168 0 13.312 5.632 13.312 13.312 0 7.168-5.632 13.312-12.8 13.312zM837.12 26.112h-650.24c-7.168 0-13.312-5.632-13.312-13.312S179.712 0 186.88 0h650.24c7.168 0 13.312 5.632 13.312 13.312s-6.144 12.8-13.312 12.8z" fill="#FF8900" p-id="1019"></path><path d="M779.264 372.224c-11.264-10.24-30.208-9.216-40.96 2.048l-280.064 307.712-131.584-148.48c-5.632-6.144-13.312-9.728-21.504-9.728-7.168 0-13.824 2.56-18.944 7.168-11.776 10.752-12.8 28.672-2.56 40.448l152.576 172.544c5.632 6.144 13.312 9.728 21.504 9.728v5.632-5.632c8.192 0 15.872-3.584 21.504-9.216l301.568-331.264c10.752-11.776 10.24-30.208-1.536-40.96z" fill="#FF6000" p-id="1020"></path></svg>