<?xml version="1.0" standalone="no"?><!DOCTYPE svg PUBLIC "-//W3C//DTD SVG 1.1//EN" "http://www.w3.org/Graphics/SVG/1.1/DTD/svg11.dtd"><svg t="1502185129231" class="icon" style="" viewBox="0 0 1024 1024" version="1.1" xmlns="http://www.w3.org/2000/svg" p-id="877" xmlns:xlink="http://www.w3.org/1999/xlink" width="200" height="200"><defs><style type="text/css"></style></defs><path d="M69.12 969.728C30.72 969.728 0 938.496 0 900.608V244.224c0-29.696 18.944-55.808 46.592-65.536L696.832 3.584c7.168-2.56 14.848-3.584 22.528-3.584C757.76 0 788.48 31.232 788.48 69.12v610.304c0 29.696-18.944 55.808-46.592 65.536l-650.24 221.184c-7.68 2.048-15.36 3.584-22.528 3.584z m650.24-930.816c-3.072 0-6.656 0.512-9.728 1.536l-650.24 175.104c-12.288 4.096-20.48 15.872-20.48 28.672v656.384c0 19.968 20.48 35.328 39.936 28.672l650.24-221.184c12.288-4.096 20.48-15.872 20.48-28.672V69.12c0-16.896-13.312-30.208-30.208-30.208z" fill="#F8A10B" p-id="878"></path><path d="M986.112 956.928H37.888c-10.24 0-18.432-8.192-18.432-18.432V214.016c0-10.24 8.192-18.432 18.432-18.432h947.712c10.24 0 18.432 8.192 18.432 18.432v724.48c0.512 10.24-7.68 18.432-17.92 18.432z" fill="#FFE39B" p-id="879"></path><path d="M948.224 976.384H75.776c-41.984 0-75.776-33.792-75.776-75.776V251.904C0 209.92 33.792 176.128 75.776 176.128h872.448c41.984 0 75.776 33.792 75.776 75.776v648.704c0 41.984-33.792 75.776-75.776 75.776zM75.776 215.04c-20.48 0-36.864 16.384-36.864 36.864v648.704c0 20.48 16.384 36.864 36.864 36.864h872.448c20.48 0 36.864-16.384 36.864-36.864V251.904c0-20.48-16.384-36.864-36.864-36.864H75.776z" fill="#F1920D" p-id="880"></path><path d="M713.728 349.696h-82.944L512 524.288 393.728 349.696H310.784l133.632 197.12H342.528v56.832h130.048v58.368H342.528v55.296h130.048v106.496h78.336v-106.496h131.072v-55.296h-131.072v-58.368h131.072v-56.832h-102.4z" fill="#F1920D" p-id="881"></path></svg>